<svg width="224" height="429" viewBox="0 0 224 429" fill="none" xmlns="http://www.w3.org/2000/svg">
<path d="M194.738 111.582C194.737 97.1727 190.851 83.0229 183.478 70.5861C176.105 58.1494 165.512 47.8738 152.785 40.8149C140.059 33.7559 125.659 30.1679 111.063 30.4193C96.4678 30.6708 82.2031 34.7526 69.7341 42.2456C57.2652 49.7386 47.0414 60.3727 40.1128 73.0559C33.1842 85.739 29.8004 100.014 30.309 114.415C30.8176 128.816 35.2003 142.824 43.0069 155C50.8135 167.176 61.7626 177.081 74.73 183.699V186.178H71.6041C70.4068 186.178 69.2586 186.648 68.412 187.483C67.5654 188.319 67.0898 189.453 67.0898 190.634C67.0898 191.816 67.5654 192.95 68.412 193.785C69.2586 194.621 70.4068 195.091 71.6041 195.091H74.719V240.75C74.7181 241.336 74.8343 241.917 75.0609 242.458C75.2876 243 75.6203 243.492 76.04 243.907C76.4596 244.322 76.9581 244.65 77.5067 244.875C78.0553 245.099 78.6433 245.214 79.237 245.213H91.7841V253.433C91.7836 254.021 91.9007 254.603 92.1287 255.145C92.3566 255.688 92.691 256.181 93.1125 256.595C93.534 257.01 94.0344 257.339 94.5848 257.562C95.1353 257.785 95.7251 257.899 96.3202 257.897H128.709C129.906 257.893 131.052 257.421 131.896 256.584C132.74 255.747 133.214 254.614 133.213 253.433V245.213H145.752C146.346 245.213 146.934 245.098 147.482 244.874C148.03 244.649 148.528 244.32 148.947 243.906C149.366 243.491 149.699 242.999 149.925 242.458C150.152 241.916 150.268 241.336 150.267 240.75V228.591H153.385C154.583 228.591 155.731 228.121 156.577 227.286C157.424 226.45 157.9 225.316 157.9 224.135C157.9 222.953 157.424 221.819 156.577 220.984C155.731 220.148 154.583 219.678 153.385 219.678H150.27V212.33H153.385C154.561 212.297 155.677 211.813 156.497 210.981C157.317 210.148 157.775 209.033 157.775 207.872C157.775 206.712 157.317 205.596 156.497 204.764C155.677 203.932 154.561 203.447 153.385 203.414H150.27V195.098H153.385C154.583 195.098 155.731 194.628 156.577 193.793C157.424 192.957 157.9 191.823 157.9 190.642C157.9 189.46 157.424 188.326 156.577 187.491C155.731 186.655 154.583 186.185 153.385 186.185H150.27V183.706C163.639 176.829 174.849 166.474 182.686 153.761C190.524 141.049 194.691 126.464 194.738 111.582V111.582ZM124.184 248.977H100.813V245.213H124.184V248.977ZM141.242 203.411H105.16C104.556 203.394 103.955 203.497 103.392 203.713C102.829 203.93 102.316 204.255 101.883 204.671C101.45 205.087 101.105 205.584 100.87 206.133C100.635 206.682 100.514 207.273 100.514 207.869C100.514 208.465 100.635 209.055 100.87 209.605C101.105 210.154 101.45 210.651 101.883 211.067C102.316 211.482 102.829 211.808 103.392 212.025C103.955 212.241 104.556 212.344 105.16 212.327H141.242V219.675H105.16C103.963 219.675 102.814 220.144 101.968 220.98C101.121 221.816 100.646 222.949 100.646 224.131C100.646 225.313 101.121 226.446 101.968 227.282C102.814 228.118 103.963 228.587 105.16 228.587H141.242V236.29H83.755V195.098H141.242V203.414V203.411ZM143.826 176.918C143.735 176.962 143.647 177.014 143.564 177.072C143.419 177.144 143.279 177.227 143.146 177.32C143.02 177.403 142.898 177.495 142.783 177.592C142.674 177.693 142.565 177.783 142.467 177.883C142.364 177.997 142.268 178.117 142.18 178.242C142.091 178.347 142.011 178.459 141.94 178.576C141.857 178.687 141.786 178.808 141.729 178.934C141.653 179.061 141.589 179.194 141.54 179.333C141.485 179.465 141.449 179.609 141.405 179.738C141.362 179.867 141.333 180.014 141.3 180.154C141.267 180.294 141.267 180.477 141.249 180.646C141.249 180.746 141.224 180.839 141.224 180.936V186.175H83.755V180.936C83.7548 180.839 83.7475 180.742 83.7332 180.646C83.7258 180.481 83.7076 180.317 83.6786 180.154C83.6496 180.014 83.6169 179.874 83.5805 179.738C83.5442 179.602 83.4969 179.465 83.4424 179.333C83.3894 179.196 83.3275 179.063 83.257 178.934C83.1966 178.811 83.1299 178.692 83.0571 178.576C82.9803 178.457 82.8952 178.345 82.8027 178.238C82.713 178.113 82.6159 177.993 82.5119 177.879C82.4138 177.779 82.3047 177.689 82.1957 177.589C82.0878 177.492 81.9749 177.401 81.8576 177.316C81.7227 177.227 81.5832 177.144 81.4397 177.069C81.355 177.011 81.2663 176.96 81.1743 176.914C66.1473 169.892 53.9896 158.029 46.7015 143.278C39.4135 128.527 37.4292 111.766 41.0751 95.7539C44.7211 79.7416 53.7801 65.4312 66.7617 55.1774C79.7433 44.9236 95.8741 39.3371 112.5 39.3371C129.126 39.3371 145.257 44.9236 158.239 55.1774C171.22 65.4312 180.279 79.7416 183.925 95.7539C187.571 111.766 185.587 128.527 178.299 143.278C171.011 158.029 158.853 169.892 143.826 176.914V176.918Z" fill="#0065A5"/>
<path d="M124.185 245.213H100.813V248.977H124.185V245.213Z" fill="#A2CBEB"/>
<path d="M112.502 39.3188C95.8737 39.3207 79.7412 44.9094 66.7586 55.1655C53.776 65.4216 44.7165 79.7342 41.0705 95.7488C37.4245 111.763 39.4092 128.526 46.698 143.279C53.9868 158.032 66.1457 169.897 81.1743 176.922C81.2667 176.966 81.3554 177.018 81.4396 177.076C81.585 177.155 81.7268 177.234 81.8612 177.323C81.9957 177.413 82.0866 177.503 82.1956 177.596C82.3047 177.689 82.4137 177.786 82.5119 177.887C82.6159 178.001 82.713 178.12 82.8026 178.246C82.8952 178.352 82.9802 178.465 83.0571 178.583C83.1298 178.699 83.1965 178.819 83.257 178.942C83.3272 179.071 83.3903 179.204 83.446 179.34C83.4969 179.473 83.5296 179.616 83.5805 179.745C83.6314 179.874 83.6495 180.022 83.6786 180.162C83.7093 180.324 83.7276 180.488 83.7331 180.653C83.7475 180.749 83.7548 180.846 83.7549 180.944V186.182H141.242V180.944C141.242 180.847 141.267 180.754 141.267 180.653C141.285 180.484 141.293 180.33 141.325 180.162C141.348 180.02 141.385 179.88 141.434 179.745C141.466 179.608 141.507 179.472 141.558 179.34C141.607 179.201 141.673 179.069 141.754 178.945C141.806 178.817 141.874 178.697 141.958 178.586C142.029 178.47 142.11 178.358 142.198 178.253C142.286 178.128 142.382 178.008 142.485 177.894C142.583 177.794 142.692 177.704 142.801 177.603C142.917 177.505 143.038 177.414 143.164 177.331C143.299 177.24 143.438 177.158 143.582 177.083C143.665 177.025 143.753 176.973 143.844 176.929C158.873 169.904 171.031 158.04 178.32 143.287C185.609 128.534 187.594 111.772 183.948 95.7578C180.303 79.7434 171.244 65.4307 158.262 55.1743C145.28 44.9179 129.148 39.3287 112.52 39.326L112.502 39.3188ZM116.864 178.267C116.864 179.449 116.388 180.582 115.541 181.418C114.695 182.254 113.547 182.723 112.349 182.723C111.152 182.723 110.004 182.254 109.157 181.418C108.311 180.582 107.835 179.449 107.835 178.267V125.486C107.835 124.304 108.311 123.17 109.157 122.335C110.004 121.499 111.152 121.029 112.349 121.029C113.547 121.029 114.695 121.499 115.541 122.335C116.388 123.17 116.864 124.304 116.864 125.486V178.267ZM131.588 178.267C131.588 179.448 131.113 180.581 130.267 181.416C129.421 182.251 128.274 182.72 127.077 182.72C125.881 182.72 124.734 182.251 123.888 181.416C123.042 180.581 122.567 179.448 122.567 178.267V114.187H100.656V178.267C100.656 179.45 100.18 180.584 99.3331 181.421C98.4858 182.257 97.3367 182.727 96.1384 182.727C94.9402 182.727 93.791 182.257 92.9438 181.421C92.0965 180.584 91.6205 179.45 91.6205 178.267V109.738C91.6205 109.685 91.6205 109.638 91.6205 109.573C91.6258 109.418 91.6416 109.264 91.6677 109.111C91.6834 108.967 91.7077 108.824 91.7404 108.684C91.7804 108.547 91.8168 108.422 91.8531 108.303C91.8894 108.185 91.973 107.995 92.0457 107.837C92.0712 107.797 92.0748 107.74 92.1039 107.697L107.588 77.9353C107.604 77.9224 107.618 77.9066 107.628 77.8887C107.719 77.7306 107.818 77.5773 107.926 77.4294C107.991 77.3397 108.053 77.2357 108.129 77.1496C108.206 77.0635 108.34 76.9415 108.446 76.8302C108.551 76.719 108.638 76.6257 108.747 76.5325C108.856 76.4392 108.951 76.4069 109.038 76.3351C109.187 76.2315 109.341 76.1357 109.5 76.0481L109.554 76.0122C109.648 75.9687 109.744 75.9304 109.841 75.8974C110.005 75.8364 110.161 75.7611 110.31 75.718C110.456 75.6741 110.604 75.6393 110.754 75.614C110.892 75.5814 111.033 75.5586 111.175 75.5458C111.319 75.5386 111.464 75.5386 111.608 75.5458C111.753 75.5458 111.91 75.5458 112.055 75.5458C112.199 75.5597 112.342 75.5825 112.484 75.614C112.627 75.641 112.769 75.6757 112.909 75.718C113.07 75.7687 113.228 75.8286 113.382 75.8974C113.48 75.944 113.581 75.9548 113.68 76.0122L113.727 76.0481C113.888 76.1314 114.04 76.2299 114.181 76.3423C114.282 76.3986 114.378 76.4621 114.468 76.5325C114.58 76.6286 114.687 76.7304 114.788 76.8374C114.894 76.9451 115.006 77.0383 115.112 77.1496C115.217 77.2608 115.235 77.3397 115.301 77.4366C115.412 77.58 115.513 77.7311 115.602 77.8887C115.602 77.9102 115.602 77.9174 115.628 77.9353L131.104 107.69C131.131 107.744 131.153 107.8 131.17 107.858C131.228 107.987 131.275 108.117 131.333 108.249C131.392 108.382 131.443 108.554 131.479 108.705C131.515 108.856 131.515 108.938 131.533 109.064C131.57 109.242 131.589 109.424 131.592 109.606C131.592 109.656 131.592 109.699 131.592 109.746V178.274L131.588 178.267Z" fill="#A2CBEB"/>
<path d="M112.502 20.8878C113.095 20.8883 113.682 20.7733 114.23 20.5495C114.778 20.3257 115.275 19.9974 115.694 19.5835C116.113 19.1695 116.445 18.6781 116.672 18.1372C116.898 17.5964 117.014 17.0168 117.013 16.4316V4.33327C116.98 3.17284 116.489 2.07098 115.646 1.26182C114.803 0.45267 113.673 0 112.497 0C111.321 0 110.191 0.45267 109.348 1.26182C108.504 2.07098 108.014 3.17284 107.98 4.33327V16.4316C107.981 17.0173 108.098 17.5971 108.326 18.138C108.553 18.6789 108.886 19.1703 109.306 19.5841C109.726 19.9979 110.224 20.326 110.773 20.5497C111.321 20.7734 111.909 20.8883 112.502 20.8878V20.8878Z" fill="#0065A5"/>
<path d="M61.1617 31.203C61.7604 32.226 62.7462 32.9722 63.9023 33.2777C65.0584 33.5832 66.2901 33.4228 67.3264 32.8319C68.3628 32.241 69.1188 31.2679 69.4283 30.1267C69.7378 28.9856 69.5753 27.7698 68.9766 26.7469L62.8556 16.2702C62.2569 15.2463 61.2707 14.4991 60.1139 14.193C58.9571 13.8868 57.7245 14.0468 56.6872 14.6377C55.6499 15.2286 54.8929 16.2021 54.5828 17.344C54.2726 18.4858 54.4347 19.7025 55.0334 20.7264L61.1617 31.203Z" fill="#0065A5"/>
<path d="M17.4795 61.0578L28.0896 67.1105C28.7738 67.5038 29.5515 67.7106 30.3432 67.7097C31.3378 67.711 32.305 67.3882 33.0945 66.7912C33.8841 66.1942 34.4519 65.3566 34.7096 64.4084C34.9674 63.4603 34.9007 62.4546 34.52 61.5477C34.1392 60.6407 33.4658 59.8833 32.6041 59.393L21.9976 53.3366C20.9618 52.7452 19.7304 52.5842 18.5742 52.889C17.4181 53.1938 16.432 53.9395 15.8329 54.9619C15.2338 55.9844 15.0707 57.1999 15.3795 58.3411C15.6882 59.4822 16.4437 60.4556 17.4795 61.047V61.0578Z" fill="#0065A5"/>
<path d="M5.3796 114.532H17.64C18.2434 114.549 18.844 114.446 19.4065 114.23C19.969 114.013 20.4818 113.688 20.9147 113.273C21.3475 112.857 21.6916 112.361 21.9265 111.812C22.1615 111.263 22.2825 110.673 22.2825 110.077C22.2825 109.482 22.1615 108.892 21.9265 108.343C21.6916 107.794 21.3475 107.297 20.9147 106.882C20.4818 106.467 19.969 106.141 19.4065 105.925C18.844 105.709 18.2434 105.606 17.64 105.623H5.3796C4.77622 105.606 4.17552 105.709 3.61305 105.925C3.05057 106.141 2.53775 106.467 2.1049 106.882C1.67206 107.297 1.32799 107.794 1.09304 108.343C0.858085 108.892 0.73703 109.482 0.73703 110.077C0.73703 110.673 0.858085 111.263 1.09304 111.812C1.32799 112.361 1.67206 112.857 2.1049 113.273C2.53775 113.688 3.05057 114.013 3.61305 114.23C4.17552 114.446 4.77622 114.549 5.3796 114.532V114.532Z" fill="#0065A5"/>
<path d="M34.2616 154.673C33.9655 154.164 33.5707 153.718 33.0998 153.36C32.6288 153.002 32.091 152.739 31.5171 152.587C30.9432 152.434 30.3444 152.395 29.7551 152.471C29.1657 152.547 28.5973 152.737 28.0823 153.03L17.4758 159.082C16.4386 159.673 15.6814 160.646 15.3709 161.787C15.0604 162.929 15.222 164.145 15.8202 165.169C16.4183 166.193 17.4041 166.941 18.5605 167.247C19.717 167.554 20.9494 167.394 21.9867 166.804L32.6005 160.751C33.1141 160.46 33.5645 160.071 33.926 159.608C34.2875 159.145 34.553 158.616 34.7072 158.052C34.8615 157.487 34.9016 156.898 34.8251 156.319C34.7486 155.739 34.5571 155.18 34.2616 154.673V154.673Z" fill="#0065A5"/>
<path d="M205.261 167.399C206.256 167.401 207.223 167.079 208.013 166.482C208.804 165.886 209.372 165.048 209.63 164.1C209.888 163.151 209.822 162.145 209.441 161.238C209.061 160.331 208.387 159.573 207.525 159.083L196.911 153.044C196.397 152.735 195.826 152.531 195.231 152.443C194.636 152.356 194.029 152.386 193.446 152.534C192.863 152.681 192.316 152.942 191.836 153.301C191.357 153.659 190.955 154.109 190.654 154.624C190.353 155.138 190.16 155.707 190.085 156.296C190.01 156.886 190.056 157.484 190.218 158.056C190.381 158.628 190.658 159.162 191.033 159.626C191.407 160.091 191.872 160.477 192.401 160.762L203.011 166.804C203.695 167.194 204.471 167.4 205.261 167.399V167.399Z" fill="#0065A5"/>
<path d="M202.85 110.079C202.852 111.261 203.329 112.393 204.176 113.228C205.023 114.063 206.171 114.532 207.368 114.532H219.614C220.789 114.499 221.904 114.015 222.723 113.183C223.542 112.352 224.001 111.237 224.001 110.077C224.001 108.917 223.542 107.803 222.723 106.971C221.904 106.14 220.789 105.656 219.614 105.623H207.368C206.775 105.623 206.188 105.737 205.64 105.961C205.092 106.185 204.593 106.513 204.174 106.927C203.754 107.341 203.421 107.832 203.194 108.373C202.967 108.914 202.85 109.494 202.85 110.079V110.079Z" fill="#0065A5"/>
<path d="M194.658 67.7169C195.45 67.716 196.228 67.5067 196.911 67.1106L207.525 61.0614C208.052 60.7754 208.515 60.3886 208.888 59.9236C209.261 59.4586 209.536 58.9248 209.697 58.3535C209.858 57.7822 209.902 57.1849 209.827 56.5966C209.751 56.0083 209.557 55.4408 209.256 54.9273C208.956 54.4139 208.554 53.9649 208.075 53.6066C207.597 53.2484 207.05 52.988 206.468 52.8409C205.886 52.6937 205.28 52.6627 204.686 52.7497C204.092 52.8367 203.521 53.0399 203.007 53.3474L192.401 59.393C191.541 59.8852 190.87 60.643 190.491 61.5494C190.111 62.4558 190.045 63.4603 190.302 64.4077C190.559 65.355 191.125 66.1925 191.912 66.7907C192.699 67.3888 193.664 67.7143 194.658 67.7169V67.7169Z" fill="#0065A5"/>
<path d="M157.682 32.8463C158.369 33.2323 159.145 33.4362 159.935 33.4383C160.728 33.4387 161.507 33.2321 162.194 32.8396C162.88 32.447 163.449 31.8825 163.843 31.203L169.971 20.7372C170.571 19.7138 170.734 18.4971 170.425 17.355C170.116 16.2128 169.36 15.2386 168.323 14.6467C167.286 14.0548 166.053 13.8938 164.896 14.1989C163.739 14.504 162.752 15.2504 162.153 16.2738L156.021 26.7469C155.423 27.7734 155.262 28.9922 155.573 30.1357C155.885 31.2792 156.643 32.2541 157.682 32.8463V32.8463Z" fill="#0065A5"/>
<path d="M208.368 320.469H117.013V265.022C116.979 263.862 116.489 262.76 115.646 261.951C114.802 261.142 113.673 260.689 112.497 260.689C111.32 260.689 110.191 261.142 109.347 261.951C108.504 262.76 108.014 263.862 107.98 265.022V320.469H14.9024C10.95 320.469 7.15954 322.019 4.3648 324.778C1.57007 327.537 0 331.278 0 335.18L0 336.974C0.00635932 340.174 1.06982 343.285 3.0291 345.835C4.98838 348.385 7.73659 350.234 10.8569 351.103L35.2859 425.042C35.5815 425.935 36.156 426.713 36.9272 427.265C37.6983 427.816 38.6265 428.112 39.5785 428.11H183.684C184.636 428.11 185.563 427.813 186.334 427.263C187.105 426.712 187.68 425.935 187.977 425.042L212.406 351.078C215.525 350.207 218.272 348.356 220.232 345.807C222.191 343.258 223.256 340.149 223.267 336.949V335.155C223.26 331.258 221.687 327.524 218.894 324.77C216.101 322.017 212.315 320.47 208.368 320.469ZM180.417 419.215H42.8534L20.5362 351.659H202.723L180.417 419.215ZM214.22 336.963C214.219 338.496 213.602 339.965 212.504 341.049C211.406 342.133 209.917 342.742 208.364 342.743H14.9024C13.3471 342.745 11.8547 342.137 10.7533 341.053C9.65189 339.969 9.03154 338.498 9.02865 336.963V335.169C9.03346 333.634 9.6543 332.164 10.7552 331.08C11.8561 329.996 13.3474 329.386 14.9024 329.385H208.368C209.923 329.386 211.415 329.997 212.515 331.083C213.615 332.168 214.233 333.641 214.234 335.176V336.97L214.22 336.963Z" fill="#0065A5"/>
<path d="M214.234 335.176V336.97C214.233 338.503 213.616 339.973 212.518 341.056C211.42 342.14 209.931 342.749 208.379 342.75H14.9024C13.3471 342.752 11.8548 342.145 10.7533 341.061C9.65189 339.977 9.03155 338.506 9.02866 336.97V335.176C9.03154 333.64 9.65154 332.168 10.7527 331.082C11.8538 329.997 13.3461 329.386 14.9024 329.385H208.368C209.923 329.386 211.415 329.997 212.515 331.083C213.615 332.168 214.233 333.641 214.234 335.176V335.176Z" fill="#A2CBEB"/>
<path d="M202.723 351.659L180.417 419.215H42.8534L20.5362 351.659H202.723Z" fill="#A2CBEB"/>
<path d="M27.7257 263.677C27.8602 264.778 31.2804 290.945 51.7403 303.818C59.235 308.441 67.929 310.816 76.7654 310.653C84.8741 310.516 92.9105 309.122 100.58 306.52L100.66 306.477L100.871 306.412L100.947 306.373C101.1 306.311 101.25 306.24 101.394 306.161C101.423 306.161 101.442 306.125 101.46 306.118C101.478 306.111 101.536 306.064 101.58 306.046L101.743 305.946C101.849 305.87 101.95 305.788 102.052 305.705C102.154 305.623 102.147 305.623 102.201 305.583L102.339 305.461C102.361 305.443 102.372 305.418 102.397 305.4C102.51 305.282 102.626 305.164 102.732 305.042C102.732 305.042 102.754 304.991 102.775 304.973C102.797 304.955 102.812 304.92 102.834 304.887C102.855 304.855 102.914 304.772 102.957 304.715C103.001 304.658 103.03 304.618 103.059 304.561C103.083 304.521 103.104 304.479 103.121 304.435C103.171 304.353 103.214 304.267 103.248 304.177C103.298 304.084 103.342 303.988 103.379 303.89C103.412 303.8 103.448 303.714 103.477 303.621L103.546 303.377C103.575 303.269 103.59 303.169 103.611 303.061C103.633 302.953 103.644 302.867 103.651 302.77C103.666 302.685 103.673 302.599 103.673 302.512C103.673 302.408 103.673 302.311 103.673 302.204C103.673 302.096 103.673 302.006 103.673 301.909C103.665 301.814 103.652 301.72 103.633 301.626C103.637 301.572 103.637 301.518 103.633 301.464C99.8313 281.523 91.1262 267.738 77.7504 260.501C56.4763 248.977 31.5894 258.596 30.539 259.016C30.4481 259.052 30.3681 259.109 30.2809 259.149C30.1352 259.213 29.9932 259.285 29.8556 259.364C29.732 259.447 29.6157 259.533 29.4922 259.619C29.3771 259.701 29.2667 259.79 29.1614 259.884C29.0489 259.986 28.9444 260.097 28.8488 260.214C28.7497 260.311 28.6585 260.416 28.5762 260.527C28.4999 260.645 28.4199 260.76 28.3509 260.885C28.2708 261.011 28.1991 261.142 28.1364 261.276C28.082 261.394 28.0334 261.513 27.991 261.635C27.9332 261.782 27.8834 261.932 27.842 262.084C27.8124 262.209 27.7894 262.336 27.7729 262.464C27.7511 262.622 27.7293 262.773 27.7148 262.93C27.7002 263.088 27.7148 263.21 27.7148 263.347C27.7148 263.483 27.7111 263.558 27.7257 263.677ZM73.4396 268.341C82.0139 273.005 88.2693 281.293 92.1439 293.004L63.7712 276.417C62.7415 275.841 61.5238 275.686 60.3799 275.987C59.236 276.288 58.2574 277.02 57.6544 278.025C57.0515 279.031 56.8725 280.23 57.1558 281.364C57.4392 282.499 58.1623 283.478 59.1697 284.092L87.5387 300.672C75.2751 302.961 64.898 301.522 56.6435 296.366C43.7984 288.318 38.9679 273.099 37.3795 266.192C44.2746 264.219 60.1183 261.076 73.4214 268.327L73.4396 268.341Z" fill="#0065A5"/>
<path d="M195.297 261.66C195.253 261.519 195.198 261.381 195.134 261.248C195.079 261.129 195.003 261.011 194.941 260.889C194.879 260.767 194.778 260.623 194.687 260.494C194.613 260.398 194.533 260.307 194.447 260.222C194.341 260.095 194.227 259.975 194.105 259.863C194.011 259.78 193.916 259.708 193.818 259.633C193.687 259.528 193.55 259.431 193.407 259.343C193.295 259.285 193.175 259.228 193.044 259.163C192.942 259.102 192.837 259.048 192.728 259.002C191.681 258.582 166.79 248.956 145.52 260.487C132.148 267.727 123.443 281.509 119.641 301.457C119.631 301.509 119.625 301.562 119.622 301.615C119.603 301.71 119.591 301.806 119.586 301.902C119.58 301.998 119.58 302.094 119.586 302.189C119.575 302.293 119.575 302.397 119.586 302.501C119.586 302.591 119.586 302.681 119.586 302.763C119.586 302.846 119.619 302.957 119.637 303.047C119.655 303.136 119.677 303.265 119.702 303.362C119.728 303.459 119.746 303.527 119.771 303.613C119.797 303.7 119.837 303.786 119.866 303.875C119.903 303.976 119.946 304.074 119.993 304.17C120.033 304.259 120.077 304.335 120.124 304.421C120.142 304.464 120.163 304.506 120.186 304.546C120.215 304.604 120.255 304.643 120.291 304.701C120.33 304.762 120.372 304.821 120.418 304.876C120.433 304.906 120.451 304.934 120.473 304.959C120.481 304.986 120.498 305.01 120.52 305.027C120.624 305.152 120.734 305.272 120.851 305.386L120.909 305.447C120.954 305.49 121.001 305.531 121.051 305.569C121.096 305.613 121.145 305.654 121.196 305.691C121.302 305.773 121.396 305.856 121.505 305.931L121.672 306.032C121.706 306.059 121.743 306.083 121.781 306.103C121.804 306.114 121.823 306.128 121.84 306.147C121.988 306.225 122.141 306.296 122.298 306.358C122.323 306.374 122.35 306.387 122.378 306.398L122.574 306.462L122.672 306.505C130.339 309.108 138.373 310.503 146.479 310.639C155.315 310.803 164.008 308.435 171.508 303.822C191.957 290.948 195.392 264.789 195.523 263.677C195.523 263.58 195.523 263.49 195.523 263.393C195.534 263.232 195.534 263.07 195.523 262.909C195.523 262.773 195.49 262.636 195.475 262.503C195.461 262.371 195.425 262.202 195.392 262.062C195.371 261.926 195.34 261.792 195.297 261.66V261.66ZM166.623 296.334C158.361 301.507 147.991 302.946 135.728 300.639L164.097 284.06C165.093 283.441 165.805 282.463 166.082 281.334C166.359 280.205 166.179 279.014 165.58 278.014C164.981 277.014 164.01 276.285 162.875 275.981C161.739 275.676 160.528 275.821 159.499 276.385L131.119 292.972C134.997 281.261 141.256 272.969 149.823 268.309C163.152 261.068 178.996 264.201 185.887 266.156C184.302 273.059 179.468 288.286 166.623 296.334Z" fill="#0065A5"/>
<path d="M131.595 109.591C131.588 109.41 131.568 109.229 131.537 109.049C131.519 108.938 131.512 108.823 131.483 108.691C131.441 108.536 131.391 108.384 131.333 108.235C131.279 108.102 131.232 107.973 131.174 107.844C131.157 107.786 131.135 107.729 131.108 107.675L115.631 77.9209L115.595 77.8743C115.513 77.7137 115.415 77.5622 115.301 77.4222C115.235 77.3253 115.181 77.2213 115.115 77.1352C115.05 77.0491 114.897 76.9306 114.792 76.823C114.691 76.7159 114.584 76.6142 114.472 76.518C114.381 76.4469 114.283 76.3833 114.181 76.3279C114.042 76.2147 113.891 76.1161 113.731 76.0337L113.683 75.9978C113.585 75.9404 113.483 75.9296 113.385 75.8758C113.229 75.822 113.073 75.7466 112.913 75.7036C112.773 75.6613 112.631 75.6266 112.487 75.5995C112.346 75.5681 112.203 75.5453 112.059 75.5314C111.913 75.5314 111.757 75.5314 111.611 75.5314C111.467 75.5242 111.323 75.5242 111.179 75.5314C111.035 75.5442 110.891 75.567 110.75 75.5995C110.603 75.6257 110.457 75.6605 110.314 75.7036C110.165 75.7466 110.009 75.822 109.841 75.8758C109.754 75.9296 109.645 75.9404 109.558 75.9978L109.503 76.0337C109.344 76.1204 109.19 76.2163 109.042 76.3207C108.951 76.3925 108.842 76.4427 108.751 76.518C108.66 76.5934 108.544 76.719 108.449 76.8158C108.338 76.9168 108.233 77.0234 108.133 77.1352C108.057 77.2213 107.995 77.3253 107.93 77.415C107.821 77.562 107.721 77.7154 107.631 77.8743C107.631 77.8958 107.602 77.903 107.591 77.9209L92.1221 107.675C92.093 107.718 92.0894 107.776 92.0639 107.815C91.9912 107.973 91.9367 108.12 91.8713 108.282C91.8059 108.443 91.7986 108.526 91.7586 108.662C91.7259 108.803 91.7016 108.945 91.6859 109.089C91.6604 109.242 91.6434 109.397 91.635 109.552C91.635 109.616 91.635 109.663 91.635 109.717V178.246C91.635 178.831 91.7518 179.41 91.9787 179.951C92.2055 180.491 92.5381 180.983 92.9573 181.396C93.3764 181.81 93.8741 182.139 94.4218 182.362C94.9695 182.586 95.5565 182.702 96.1494 182.702C96.7422 182.702 97.3292 182.586 97.8769 182.362C98.4246 182.139 98.9223 181.81 99.3415 181.396C99.7607 180.983 100.093 180.491 100.32 179.951C100.547 179.41 100.664 178.831 100.664 178.246V114.187H122.596V178.267C122.596 178.852 122.712 179.431 122.939 179.971C123.166 180.511 123.498 181.002 123.917 181.415C124.336 181.829 124.833 182.157 125.38 182.381C125.927 182.604 126.514 182.72 127.106 182.72C127.699 182.72 128.285 182.604 128.832 182.381C129.38 182.157 129.877 181.829 130.296 181.415C130.715 181.002 131.047 180.511 131.274 179.971C131.5 179.431 131.617 178.852 131.617 178.267V109.738C131.602 109.685 131.595 109.641 131.595 109.591ZM103.531 105.286L111.611 89.7394L119.71 105.286H103.531Z" fill="#0065A5"/>
<path d="M119.71 105.279H103.531L111.612 89.7322L119.71 105.279Z" fill="#A2CBEB"/>
<path d="M116.878 125.486V178.267C116.878 179.449 116.403 180.582 115.556 181.418C114.71 182.254 113.561 182.723 112.364 182.723C111.167 182.723 110.018 182.254 109.172 181.418C108.325 180.582 107.85 179.449 107.85 178.267V125.486C107.85 124.304 108.325 123.17 109.172 122.335C110.018 121.499 111.167 121.029 112.364 121.029C113.561 121.029 114.71 121.499 115.556 122.335C116.403 123.17 116.878 124.304 116.878 125.486Z" fill="#0065A5"/>
</svg>
